<svg
              width="20px"
              height="20px"
              viewBox="-1 -1 20 20"
              fill="currentColor"
              xmlns="http://www.w3.org/2000/svg"
              className=""
            >
              <path
                d="M8 10.4a2.4 2.4 0 1 0 0-4.8 2.4 2.4 0 0 0 0 4.8ZM8 12a4 4 0 1 1 0-8 4 4 0 0 1 0 8ZM8 0a.8.8 0 0 1 .8.8v1.6a.8.8 0 0 1-1.6 0V.8A.8.8 0 0 1 8 0Zm0 12.8a.8.8 0 0 1 .8.8v1.6a.8.8 0 1 1-1.6 0v-1.6a.8.8 0 0 1 .8-.8ZM.8 7.2h1.6a.8.8 0 0 1 0 1.6H.8a.8.8 0 0 1 0-1.6Zm12.8 0h1.6a.8.8 0 1 1 0 1.6h-1.6a.8.8 0 0 1 0-1.6Zm.06-4.86a.8.8 0 0 1 0 1.13l-1.13 1.14a.8.8 0 1 1-1.14-1.14l1.14-1.13a.8.8 0 0 1 1.13 0ZM4.6 11.4a.8.8 0 0 1 0 1.14l-1.14 1.13a.8.8 0 1 1-1.13-1.14l1.13-1.13a.8.8 0 0 1 1.14 0ZM3.47 2.34l1.14 1.13a.8.8 0 0 1-1.14 1.14L2.34 3.47a.8.8 0 0 1 1.13-1.13Zm9.06 9.05 1.13 1.14a.8.8 0 0 1-1.13 1.13l-1.14-1.13a.8.8 0 1 1 1.14-1.14Z"
                fill="#464647"
              ></path>
            </svg>
